/* XPM */
static char *16_9[]={
"27 18 2 1",
"# c #000000",
". c #ffffff",
"...........................",
"...........................",
"..##..##..........######...",
"..##..##.........########..",
"..##..##....##...##....##..",
"..##..##.........##....##..",
"..##..##....##...##....##..",
"..##..##.........##....##..",
"..##..#######....########..",
"..##..########....#######..",
"..##..##....##.........##..",
"..##..##....##.........##..",
"..##..##....##.........##..",
"..##..##....##.........##..",
"..##..########....#######..",
"..##..########....#######..",
"...........................",
"..........................."};
