/* XPM */
static char * a_pause_xpm[] = {
"28 26 3 1",
" 	c None",
".	c #FFFFFF",
"+	c #A592AF",
"............................",
"............................",
"......+++++......+++++......",
"......+++++......+++++......",
"......+++++......+++++......",
"......+++++......+++++......",
"......+++++......+++++......",
"......+++++......+++++......",
"......+++++......+++++......",
"......+++++......+++++......",
"......+++++......+++++......",
"......+++++......+++++......",
"......+++++......+++++......",
"......+++++......+++++......",
"......+++++......+++++......",
"......+++++......+++++......",
"......+++++......+++++......",
"......+++++......+++++......",
"......+++++......+++++......",
"......+++++......+++++......",
"......+++++......+++++......",
"......+++++......+++++......",
"......+++++......+++++......",
"......+++++......+++++......",
"............................",
"............................"};
