/* XPM */
static char * a_play_xpm[] = {
"28 26 3 1",
" 	c None",
".	c #FFFFFF",
"+	c #A592AF",
"............................",
"............................",
"......++....................",
"......+++...................",
"......+++++.................",
"......++++++................",
"......++++++++..............",
"......+++++++++.............",
"......+++++++++++...........",
"......++++++++++++..........",
"......++++++++++++++........",
"......+++++++++++++++.......",
"......++++++++++++++++......",
"......++++++++++++++++......",
"......+++++++++++++++.......",
"......++++++++++++++........",
"......++++++++++++..........",
"......+++++++++++...........",
"......+++++++++.............",
"......++++++++..............",
"......++++++................",
"......+++++.................",
"......+++...................",
"......++....................",
"............................",
"............................"};
