/* XPM */
static char * srew_xpm[] = {
"28 26 3 1",
" 	c None",
".	c #FFFFFF",
"+	c #A192AA",
"............................",
"............................",
"................++...+++++..",
"...............+++...+++++..",
".............+++++...+++++..",
"............++++++...+++++..",
"..........++++++++...+++++..",
".........+++++++++...+++++..",
".......+++++++++++...+++++..",
"......++++++++++++...+++++..",
"....++++++++++++++...+++++..",
"...+++++++++++++++...+++++..",
"..++++++++++++++++...+++++..",
"..++++++++++++++++...+++++..",
"...+++++++++++++++...+++++..",
"....++++++++++++++...+++++..",
"......++++++++++++...+++++..",
".......+++++++++++...+++++..",
".........+++++++++...+++++..",
"..........++++++++...+++++..",
"............++++++...+++++..",
".............+++++...+++++..",
"...............+++...+++++..",
"................++...+++++..",
"............................",
"............................"};
