/* XPM */
static char *current_xpm[] = {
"20 20 2 1",
".	c #FFFFFF",
"+	c #000000",
"....................",
"....................",
"....................",
"........+...........",
"........++..........",
"........++++........",
"........++++++......",
"........++++++++....",
"++++++++++++++++++..",
"++++++++++++++++++++",
"++++++++++++++++++++",
"++++++++++++++++++..",
"........++++++++....",
"........++++++......",
"........++++........",
"........++..........",
"........+...........",
"....................",
"....................",
"...................."};
