/* XPM */
static char *ffwd1[]={
"28 26 2 1",
". c #ffffff",
"# c #000000",
"............................",
"............................",
"..##......##................",
"..###.....###...............",
"..#####...#####.............",
"..######....####............",
"..########...#####..........",
"..#########....####.........",
"..###########...#####.......",
"..############....####......",
"..##############...#####....",
"..###############....####...",
"..################....####..",
"..################....####..",
"..###############....####...",
"..##############...#####....",
"..############....####......",
"..###########...#####.......",
"..#########....####.....#...",
"..########...#####......#...",
"..######....####........#...",
"..#####...#####.........#...",
"..###.....###......#.#..#...",
"..##......##........#...#...",
"...................#.#..#...",
"............................"};
