/* XPM */
static char * recording_xpm[] = {
"27 18 3 1",
" 	c None",
".	c #FFFFFF",
"+	c #CC0606",
"...........................",
"...........................",
"..++++++...++++++..++++++..",
"..+++++++.+++++++.+++++++..",
"..++...++.++......++.......",
"..++...++.++......++.......",
"..++...++.++......++.......",
"..++...++.++......++.......",
"..++++++..+++++...++.......",
"..++++....+++++...++.......",
"..++.++...++......++.......",
"..++..++..++......++.......",
"..++...++.++......++.......",
"..++...++.++......++.......",
"..++...++.+++++++.+++++++..",
"..++...++..++++++..++++++..",
"...........................",
"..........................."};
