/* XPM */
static char *run[]={
"27 18 2 1",
"# c #000000",
". c #ffffff",
"...........................",
"...........................",
"..######..##...##.##...##..",
"..#######.##...##.##...##..",
"..##...##.##...##.###..##..",
"..##...##.##...##.###..##..",
"..##...##.##...##.###..##..",
"..##...##.##...##.####.##..",
"..######..##...##.####.##..",
"..####....##...##.##.####..",
"..##.##...##...##.##.####..",
"..##..##..##...##.##..###..",
"..##...##.##...##.##..###..",
"..##...##.##...##.##..###..",
"..##...##.#######.##...##..",
"..##...##..#####..##...##..",
"...........................",
"..........................."};
