/* XPM */
static char *stnr[]={
"27 22 2 1",
"# c #000000",
". c #ffffff",
".#######..#######..#######.",
".#...........#.....#.....#.",
".#...........#.....#.....#.",
".#...........#.....#.....#.",
".#######.....#.....#######.",
".......#.....#.....###.....",
".......#.....#.....#..##...",
".......#.....#.....#...##..",
".#######.....#.....#....##.",
"...........................",
"...........................",
"...........................",
"...........................",
".#######..#.....#..#######.",
".#........##....#..#.....#.",
".#........##....#..#.....#.",
".#........#.#...#..#.....#.",
".#######..#..#..#..#######.",
".......#..#...#.#..###.....",
".......#..#....##..#..##...",
".......#..#....##..#...##..",
".#######..#.....#..#....##."};
