/* XPM */
static char * vdr_logo_small_xpm[] = {
"100 70 2 1",
" 	c #FFFFFF",
".	c #000000",
"                                                                                                    ",
"                                                                                                    ",
"                                                                                                    ",
"                                                                                                    ",
"                                                                                                    ",
"                                                                                                    ",
"                                                                                                    ",
"          ..                            .    ...    .     .   ....   ...    ...                     ",
"       .....                          ..................   ........................                 ",
"        .....                       .......................  .........................              ",
"        .....                       ........................ ..........................             ",
"        .....                      ......................... ...........................            ",
"        .....                    ............................. .........................            ",
"         .....                   .............................. .............  ..........           ",
"         .....                   .........            .........                   .......           ",
"         .....                   .........               ......                     .....           ",
"          .....                 ..........                ......                     .....          ",
"          .....                 ..........                ......                     .....          ",
"          .....                 ..........                 ......                    .....          ",
"           ....                 .... .....                  .....                    ......         ",
"           .....               ..... .....                  .....                    .....          ",
"           .....               ..... .....         ....      ....                    ......         ",
"           .....              .....  .....        ......     ....                    .....          ",
"            ....              .....  .....        ......     .....                   .....          ",
"            .....             .....  .....        .......    .....                   .....          ",
"            ....              .....  .....        ... ...    .....                  ......          ",
"             ....            .....   .....        .... ..    .....                .......           ",
"             .....           .....   .....        .  . ..    ......              ........           ",
"             .....           ....    .....        .   ...    ............................           ",
"             .....           ....    .....        .    ..     ...........................           ",
"              ....           ....    .....        ..   ..     ..........................            ",
"              .....         .....    .....          .   ..   .........................              ",
"              .....         .....    .....       .      ..    ........................              ",
"               ....        .....     .....       .      ...  ...... .............                   ",
"               ....        .....     .....      .       ...  ......    . .........                  ",
"               .....       .....     .....     ..        ... ......          ......                 ",
"               .....       ....      .....     ..        ... .....           .......                ",
"                ....      .....      .....     .         ... .....            .......               ",
"                ....      .....      .....     .         ..........             .....               ",
"                ....      ....       .....    ..         .........              .....               ",
"                 ....    .....       .....    ..         ........               .......             ",
"                 ....    .....       .....      .        .........               ......             ",
"                 .....   .....       .....      .        ... ....                ......             ",
"                  ....   .....       .....       .        .  ....                 ......            ",
"                  ....   ....        .....        .     .     ...                 ......            ",
"                  ....  .....        .....                    ..                   ......           ",
"                   .... .....        .....            ...     ..                    .....           ",
"                   .........         .....   .    .......   ....                    ......          ",
"                   ........          .....  ............  .....                     ......          ",
"                   .........         ..........................                      ......         ",
"                   ........          .........................                       ......         ",
"                    .......          .......................                          ......        ",
"                    .......          .......................                           .....        ",
"                    ......           .....................                             .....        ",
"                     .....           ...................                               ......       ",
"                     .....            ...............                                   ......      ",
"                                                                                                    ",
"                                                                                                    ",
"         .  .  .         . ..    .         .    .                       .    .  . .       . .       ",
"         .  .  . .  ...  . .     .. .     ..  ..      . .  ..   .    .  .  . .  .    ...  ...       ",
"          . .  .  . .    .  .    .. .  .  ..   ..     . .       .       .   ..  . .  .    ...       ",
"        ..  .  . .. ...     .    .. .  .        .     . .   ..  .     ..   . .  . .  . .  . .       ",
"               ..   .     ..      .       .      .    .           .   .      .  ..   ..   .  .      ",
"                 .    .    .                                ..          .             ..            ",
"                                                                                                    ",
"                                                                                                    ",
"                                                                                                    ",
"                                                                                                    ",
"                                                                                                    ",
"                                                                                                    "};
